name rise30.8019peak61.5557fall86.2505.mot
datacolumns 19
datarows 23
range 22.98991200000000 23.02657700000000
endheader
time	ground_force1_vx	ground_force1_vy	ground_force1_vz	ground_force1_px	ground_force1_py	ground_force1_pz	ground_force2_vx	ground_force2_vy	ground_force2_vz	ground_force2_px	ground_force2_py	ground_force2_pz	ground_torque1_x	ground_torque1_y	ground_torque1_z	ground_torque2_x	ground_torque2_y	ground_torque2_z	
22.98991200000000	-43.81314600000000	744.03483300000005	44.32166000000000	0.02775700000000	0.00000000000000	0.08782000000000	-12.48482100000000	85.52231000000000	16.48478800000000	0.33858600000000	0.00000000000000	-0.07698600000000	0.00000000000000	10.35779300000000	0.00000000000000	0.00000000000000	9.15552100000000	0.00000000000000	
22.99158600000000	-43.85624900000000	740.56531500000006	43.89823200000000	0.02728400000000	0.00000000000000	0.08777300000000	-12.31527800000000	88.32777800000000	16.36513600000000	0.33873500000000	0.00000000000000	-0.07740000000000	0.00000000000000	10.28239300000000	0.00000000000000	0.00000000000000	9.11244600000000	0.00000000000000	
22.99325100000000	-43.91042100000000	737.05256499999996	43.45651200000000	0.02680700000000	0.00000000000000	0.08772100000000	-12.12218000000000	91.21032500000000	16.22465600000000	0.33884600000000	0.00000000000000	-0.07781200000000	0.00000000000000	10.20985600000000	0.00000000000000	0.00000000000000	9.05927000000000	0.00000000000000	
22.99491100000000	-43.97621300000000	733.49943099999996	42.99701600000000	0.02632600000000	0.00000000000000	0.08766500000000	-11.91065500000000	94.19362000000000	16.06983600000000	0.33892300000000	0.00000000000000	-0.07822400000000	0.00000000000000	10.14031900000000	0.00000000000000	0.00000000000000	8.99962200000000	0.00000000000000	
22.99657700000000	-44.05416200000000	729.90863000000002	42.52028000000000	0.02584000000000	0.00000000000000	0.08760400000000	-11.68343500000000	97.29141000000000	15.90406200000000	0.33896700000000	0.00000000000000	-0.07863500000000	0.00000000000000	10.07391200000000	0.00000000000000	0.00000000000000	8.93543500000000	0.00000000000000	
22.99824400000000	-44.14479100000000	726.28273600000000	42.02686800000000	0.02535100000000	0.00000000000000	0.08753900000000	-11.44115100000000	100.50851700000000	15.72799900000000	0.33898300000000	0.00000000000000	-0.07904500000000	0.00000000000000	10.01076000000000	0.00000000000000	0.00000000000000	8.86715200000000	0.00000000000000	
22.99991200000000	-44.24861000000000	722.62417100000005	41.51736500000000	0.02485700000000	0.00000000000000	0.08747000000000	-11.18271400000000	103.84229000000001	15.54009400000000	0.33897100000000	0.00000000000000	-0.07945400000000	0.00000000000000	9.95098000000000	0.00000000000000	0.00000000000000	8.79400700000000	0.00000000000000	
23.00158500000000	-44.36610600000000	718.93519200000003	40.99237300000000	0.02435800000000	0.00000000000000	0.08739600000000	-10.90576200000000	107.28431800000000	15.33714800000000	0.33893400000000	0.00000000000000	-0.07986200000000	0.00000000000000	9.89468400000000	0.00000000000000	0.00000000000000	8.71433400000000	0.00000000000000	
23.00325600000000	-44.49774700000000	715.21788500000002	40.45251600000000	0.02385600000000	0.00000000000000	0.08731700000000	-10.60711000000000	110.82223000000000	15.11490800000000	0.33887300000000	0.00000000000000	-0.08026800000000	0.00000000000000	9.84197500000000	0.00000000000000	0.00000000000000	8.62589700000000	0.00000000000000	
23.00491700000000	-44.64397400000000	711.47415200000000	39.89842800000000	0.02334900000000	0.00000000000000	0.08723400000000	-10.28318900000000	114.44143400000000	14.86862200000000	0.33878900000000	0.00000000000000	-0.08067400000000	0.00000000000000	9.79295100000000	0.00000000000000	0.00000000000000	8.52618800000000	0.00000000000000	
23.00658600000000	-44.80520400000000	707.70570799999996	39.33075900000000	0.02283900000000	0.00000000000000	0.08714600000000	-9.93042100000000	118.12667800000000	14.59353000000000	0.33868400000000	0.00000000000000	-0.08107700000000	0.00000000000000	9.74770000000000	0.00000000000000	0.00000000000000	8.41269600000000	0.00000000000000	
23.00825300000000	-44.98181900000000	703.91407000000004	38.75016600000000	0.02232400000000	0.00000000000000	0.08705400000000	-9.54553000000000	121.86334500000000	14.28526200000000	0.33855800000000	0.00000000000000	-0.08147900000000	0.00000000000000	9.70630100000000	0.00000000000000	0.00000000000000	8.28312500000000	0.00000000000000	
23.00991200000000	-45.17416900000000	700.10054800000000	38.15731600000000	0.02180500000000	0.00000000000000	0.08695800000000	-9.12577700000000	125.63844899999999	13.94013700000000	0.33841300000000	0.00000000000000	-0.08187800000000	0.00000000000000	9.66882700000000	0.00000000000000	0.00000000000000	8.13555500000000	0.00000000000000	
23.01158400000000	-45.38256800000000	696.26624800000002	37.55288200000000	0.02128200000000	0.00000000000000	0.08685600000000	-8.66910900000000	129.44130799999999	13.55535500000000	0.33824800000000	0.00000000000000	-0.08227500000000	0.00000000000000	9.63533900000000	0.00000000000000	0.00000000000000	7.96854400000000	0.00000000000000	
23.01324900000000	-45.60728700000000	692.41205700000000	36.93753900000000	0.02075500000000	0.00000000000000	0.08675100000000	-8.17423500000000	133.26391300000000	13.12909600000000	0.33806600000000	0.00000000000000	-0.08267000000000	0.00000000000000	9.60589000000000	0.00000000000000	0.00000000000000	7.78118100000000	0.00000000000000	
23.01492000000000	-45.84855700000000	688.53864599999997	36.31196300000000	0.02022400000000	0.00000000000000	0.08664100000000	-7.64063100000000	137.10102100000000	12.66052400000000	0.33786500000000	0.00000000000000	-0.08306100000000	0.00000000000000	9.58052300000000	0.00000000000000	0.00000000000000	7.57308900000000	0.00000000000000	
23.01658000000000	-46.10656100000000	684.64646400000004	35.67683100000000	0.01968900000000	0.00000000000000	0.08652700000000	-7.06849600000000	140.95002199999999	12.14973200000000	0.33764600000000	0.00000000000000	-0.08345000000000	0.00000000000000	9.55926900000000	0.00000000000000	0.00000000000000	7.34438700000000	0.00000000000000	
23.01824600000000	-46.38143200000000	680.73573699999997	35.03281300000000	0.01915000000000	0.00000000000000	0.08640800000000	-6.45866400000000	144.81064100000000	11.59763100000000	0.33741100000000	0.00000000000000	-0.08383500000000	0.00000000000000	9.54215200000000	0.00000000000000	0.00000000000000	7.09563500000000	0.00000000000000	
23.01991400000000	-46.67325100000000	676.80646400000001	34.38058000000000	0.01860800000000	0.00000000000000	0.08628600000000	-5.81249100000000	148.68451700000000	11.00580300000000	0.33715700000000	0.00000000000000	-0.08421600000000	0.00000000000000	9.52918100000000	0.00000000000000	0.00000000000000	6.82775100000000	0.00000000000000	
23.02158600000000	-46.98204200000000	672.85842200000002	33.72079000000000	0.01806100000000	0.00000000000000	0.08615900000000	-5.13173100000000	152.57472899999999	10.37634300000000	0.33688700000000	0.00000000000000	-0.08459300000000	0.00000000000000	9.52035700000000	0.00000000000000	0.00000000000000	6.54192400000000	0.00000000000000	
23.02324700000000	-47.30777200000000	668.89116200000001	33.05409600000000	0.01751100000000	0.00000000000000	0.08602800000000	-4.41840800000000	156.48530600000001	9.71169800000000	0.33660000000000	0.00000000000000	-0.08496500000000	0.00000000000000	9.51566800000000	0.00000000000000	0.00000000000000	6.23952800000000	0.00000000000000	
23.02491400000000	-47.65034600000000	664.90401299999996	32.38114100000000	0.01695600000000	0.00000000000000	0.08589300000000	-3.67470200000000	160.42076399999999	9.01452400000000	0.33629600000000	0.00000000000000	-0.08533300000000	0.00000000000000	9.51509000000000	0.00000000000000	0.00000000000000	5.92204300000000	0.00000000000000	
23.02657700000000	-48.00960400000000	660.89608499999997	31.70255600000000	0.01639800000000	0.00000000000000	0.08575500000000	-2.90284300000000	164.38570600000000	8.28754600000000	0.33597500000000	0.00000000000000	-0.08569500000000	0.00000000000000	9.51858600000000	0.00000000000000	0.00000000000000	5.59098000000000	0.00000000000000	
